<?xml version="1.0" standalone="no"?>
<!DOCTYPE svg PUBLIC "-//W3C//DTD SVG 20010904//EN"
 "http://www.w3.org/TR/2001/REC-SVG-20010904/DTD/svg10.dtd">
<svg version="1.0" xmlns="http://www.w3.org/2000/svg"
 width="459.000000pt" height="355.000000pt" viewBox="0 0 459.000000 355.000000"
 preserveAspectRatio="xMidYMid meet">

<g transform="translate(0.000000,355.000000) scale(0.100000,-0.100000)"
fill="#000000" stroke="none">
<path d="M2360 2903 c-248 -14 -396 -42 -490 -95 -86 -48 -135 -88 -433 -352
l-67 -58 -120 1 c-170 3 -230 -26 -230 -108 0 -33 19 -81 32 -81 4 0 8 -4 8
-9 0 -4 -35 -21 -77 -36 -109 -38 -308 -135 -368 -179 -102 -74 -224 -262
-257 -396 -9 -38 -13 -126 -13 -285 0 -332 20 -411 115 -446 40 -15 47 -22 65
-70 40 -106 77 -153 150 -185 60 -26 285 -32 354 -9 58 19 142 90 161 135 13
31 13 31 74 25 337 -33 1120 -33 1412 0 l60 7 17 -53 c52 -163 119 -203 332
-203 124 1 175 13 218 52 57 51 134 297 158 504 28 239 -48 468 -156 468 -25
0 -71 -48 -97 -102 -102 -211 -94 -622 14 -687 24 -15 26 -20 13 -25 -27 -10
-68 16 -92 59 -107 191 -37 745 107 843 53 36 114 27 158 -24 63 -73 102 -265
102 -499 l0 -105 28 -1 c83 -5 123 7 244 69 4 2 13 -17 19 -43 17 -66 39 -77
164 -83 128 -6 148 -1 175 43 26 42 55 177 64 300 14 184 -41 453 -96 463 -25
5 -56 -91 -66 -205 -9 -93 -1 -294 12 -344 5 -18 4 -20 -3 -9 -44 70 -41 418
6 565 31 96 56 115 92 69 36 -46 61 -163 77 -356 3 -43 10 -78 15 -78 5 0 18
9 29 20 26 26 26 93 0 315 -40 340 -60 412 -167 624 -213 419 -367 526 -812
560 -119 10 -783 12 -931 4z m924 -153 c4 -5 -1 -37 -13 -72 -11 -34 -36 -131
-55 -215 -19 -84 -40 -161 -46 -172 -5 -11 -26 -25 -46 -30 -23 -6 -251 -8
-640 -4 -453 5 -652 3 -793 -7 -155 -11 -200 -11 -250 0 -34 7 -61 16 -61 19
0 24 397 376 474 421 56 33 152 58 258 70 91 10 1160 0 1172 -10z m352 -35
c85 -29 136 -59 180 -106 82 -90 164 -221 164 -262 0 -18 -14 -42 -41 -72 -23
-25 -44 -45 -48 -45 -4 0 -13 19 -21 42 -26 72 -83 97 -227 98 -147 0 -217
-32 -256 -119 -29 -67 -39 -34 -26 89 13 136 44 281 69 329 39 77 83 87 206
46z m-640 -850 c13 -33 -85 -164 -145 -194 -86 -44 -600 -198 -610 -183 -14
21 -68 79 -93 98 -26 21 -38 21 -360 23 -183 1 -461 6 -618 11 l-285 9 -71
-75 -71 -74 -98 53 c-101 54 -189 123 -200 157 -8 24 23 94 58 136 47 56 58
54 270 -48 l192 -93 533 -3 532 -3 182 36 c99 20 287 62 417 95 267 66 272 67
324 69 25 1 40 -4 43 -14z m-1591 -515 c121 -5 297 -9 390 -10 208 0 217 -2
213 -44 -5 -55 -38 -60 -398 -60 -464 0 -698 30 -709 88 -7 40 24 49 159 42
69 -4 224 -11 345 -16z m-696 -133 c47 -24 37 -37 -28 -37 -34 0 -76 -6 -95
-14 -42 -18 -78 -63 -74 -95 4 -33 54 -46 263 -66 420 -40 645 -49 1180 -50
500 0 664 6 694 24 21 13 -12 65 -62 99 -68 47 -152 74 -249 80 -49 2 -88 8
-88 13 0 27 100 43 187 29 121 -20 215 -83 274 -185 39 -68 38 -82 -9 -95 -61
-16 -389 -30 -707 -30 -704 0 -1395 51 -1524 113 -31 15 -46 54 -37 93 22 87
194 163 275 121z"/>
</g>
</svg>
